<?xml version="1.0" encoding="UTF-8"?>
<svg version="1.1" viewBox="0 0 1748 2048" width="1280" height="1280" xmlns="http://www.w3.org/2000/svg">
<path transform="translate(881,1205)" d="m0 0 18 1 27 4 17 4 33 11 16 7 16 8 17 9 10 7 14 10 13 11 10 9 8 8 9 11 10 13 9 14 20 34 13 25 8 16 12 22 14 27 10 18 8 13 14 21 13 18 9 10 7 8 10 10 2 1v2l4 2 17 13 18 10 17 9 31 12 27 9 43 14 29 10 15 7 16 8 16 10 12 9 9 9 6 5 13 18 7 11 11 28 5 17 4 24 2 19v22l-3 26-5 20-7 17-8 16-7 11-11 15-5 6-15 15-8 7-10 8-26 17-26 14-30 15-19 8-25 10-31 10-25 6-26 4h-24l-24-4-20-5-26-9-21-9-35-16-25-12-26-11-29-12-34-13-15-6-44-14-21-4-13-2-12-1h-20l-24 3-24 5-41 13-30 12-26 10-26 11-21 9-60 28-24 10-33 11-26 5-6 1h-27l-35-6-25-7-27-9-36-15-16-8-25-12-10-6-14-8-14-10-11-8-10-9-8-7-16-17-11-16-11-18-9-25-6-21-2-15v-38l3-21 8-30 7-21 6-11 10-16 14-15 5-5 10-9 14-9 13-8 28-13 69-23 25-8 38-15 28-15 9-7 11-8 10-10 8-7 11-13 7-8 6-9 7-9 13-22 6-9 8-15 6-10 11-23 9-16 10-19 9-17 7-14 8-13 9-15 14-20 11-13 7-8 13-13 13-10 9-7 12-8 17-10 16-8 21-9 34-11 26-5z" fill="#211C1A"/>
<path transform="translate(503,232)" d="m0 0h12l11 3 8 4 5 4 7 8 6 7 13 23 7 16 10 19 12 23 10 17 8 15 8 13 30 51 8 11 13 11 11 10 8 7 22 24 7 8 13 17 12 17 12 19 13 25 8 16 10 25 7 23 9 39 3 26 1 15v34l-3 34-7 34-6 23-6 15-9 16-9 12-13 15-10 10-17 13-11 8-12 7-17 9-19 8-23 7-21 4-15 2-24 1-25-2-21-4-20-7-21-11-11-8-18-14-13-11-23-23-9-11-7-9-13-19-12-21-11-25-9-23-14-47-8-38-7-35-4-33-2-26-1-20v-45l2-33 4-33 6-29 9-35 10-28 9-21 8-17 11-20 9-14 9-13 13-18 7-7 8-10 12-11 10-9 10-7 16-8z" fill="#211C1A"/>
<path transform="translate(1280,242)" d="m0 0h10l13 4 16 8 24 22 13 17 10 15 11 19 15 29 14 36 8 30 8 40 3 23 1 15v67l-2 26-4 27-8 44-6 27-12 40-7 21-14 37-16 35-9 17-10 16-7 10-12 17-7 7-7 8-20 20-19 14-12 9-10 6-13 8-24 12-21 6-18 3-10 1h-25l-24-3-25-6-14-5-20-9-10-5-21-13-15-12-9-7-19-19-7-9-9-12-7-12-9-19-4-12-4-22-3-28-1-18v-14l2-27 4-32 6-28 15-44 12-25 9-17 10-16 7-11 9-12 8-10 13-16 11-12 15-15 8-7 7-7 13-10 9-7 10-7 11-8 11-7 8-12 8-9 9-13 20-26 9-12 9-13 8-10 7-11 8-11 8-13 9-13 10-16 11-14 8-8 11-7 11-4z" fill="#211C1A"/>
<path transform="translate(109,837)" d="m0 0h17l17 3 15 6 26 13 18 12 16 11 12 8 11 8 25 17 14 9 19 11 16 8 19 9 29 9 26 9 24 10 17 10 13 9 12 9 13 12 9 9 11 14 11 17 9 17 10 25 6 25 5 30 1 10v29l-3 21-6 31-7 24-14 34-11 22-8 14-13 19-20 25-19 19-11 9-12 9-28 16-21 7-26 6-15 2h-27l-19-3-25-6-21-7-23-11-16-9-10-7-11-8-14-11-10-9-8-7-15-15-7-8-12-14-10-13-13-19-9-14-8-14-10-19-9-19-9-25-11-36-8-37-4-20-4-28-3-33v-48l5-38 4-18 7-24 7-18 10-19 7-11 13-16 7-8 14-11 13-8 11-4z" fill="#211C1A"/>
<path transform="translate(1627,826)" d="m0 0h22l12 3 19 10 14 12 7 7 10 13 9 15 7 12 8 21 6 20 5 25 2 11v78l-7 45-11 49-8 26-12 36-9 20-8 16-15 27-9 12-7 11-12 16-12 14-8 9-7 8-7 6-6 7-10 8-10 9-12 9-13 9-15 9-16 9-27 12-21 6-20 4-16 2h-34l-21-3-21-5-13-5-23-12-24-18-9-9-8-7-12-14-7-8-14-20-14-25-8-16-11-26-10-33-5-21-3-20-1-11v-37l4-30 5-19 11-33 15-28 13-18 9-10 7-7 1-2h2l1-3 13-10 7-6 29-17 23-10 16-6 40-10 32-11 16-7 10-6 16-8 13-8 19-11 10-7 17-10 11-7 25-14 12-6 27-10z" fill="#211C1A"/>
<path transform="translate(1635,526)" d="m0 0 6 2 9 9 9 11 14 17 9 10 7 9 8 10 11 18 8 16 11 27 6 22 6 30 2 17 1 20v20l-1 25-3 9-3 2-19-9-17-5-17-3-10-1h-18l-21 3-21 5-8 3h-4l2-20 4-18 8-28 6-16 6-10 6-15 4-15 2-15v-12l-3-25-6-25-11-27-2-7v-13l4-8 12-11z" fill="#221D1B"/>
<path transform="translate(135,538)" d="m0 0 7 1 5 3 7 10 3 7v11l-4 13-8 19-6 13-5 19-3 17-1 20 3 21 6 18 8 17 6 21 5 30 3 28h-5l-8-4-21-7-17-3-13-1h-11l-23 2-12 3-23 9-5-1-2-4v-35l2-27 6-34 5-21 7-21 10-22 9-16 12-18 10-12 7-8 9-9 7-8 8-8 9-11 10-10z" fill="#231E1C"/>
<path transform="translate(1177)" d="m0 0h26l13 10 45 45 7 9 9 12 10 17 16 40 14 27 7 12 6 16v10l-4 3-56 5-27 4-40 8-8 1-1-14-1-38 1-27 2-24v-33l-3-25-4-15-3-6-6-8-6-15-1-8z" fill="#231E1C"/>
<path transform="translate(629)" d="m0 0 11 1 10 4 2 2v9l-10 16-9 13-5 10-5 17-3 16-3 30-2 38-5 38-4 25h-3l-11-9-13-9-15-9-13-6-18-4h-27l-21 4h-8l-3-5 1-7 4-8 9-15 10-14 6-8 12-20 8-16 7-11 10-14 4-5h2l2-4 10-10 10-8 8-7 12-9 11-9 13-10 12-5z" fill="#231E1C"/>
</svg>
