<?xml version="1.0" standalone="no"?>
<!DOCTYPE svg PUBLIC "-//W3C//DTD SVG 20010904//EN"
 "http://www.w3.org/TR/2001/REC-SVG-20010904/DTD/svg10.dtd">
<svg version="1.0" xmlns="http://www.w3.org/2000/svg"
 width="512.000000pt" height="512.000000pt" viewBox="0 0 512.000000 512.000000"
 preserveAspectRatio="xMidYMid meet">

<g transform="translate(0.000000,512.000000) scale(0.100000,-0.100000)"
fill="#000000" stroke="none">
<path d="M2536 4803 c-39 -597 -288 -1142 -707 -1549 -418 -405 -931 -632
-1511 -670 -92 -6 -108 -9 -108 -24 0 -14 20 -18 143 -28 604 -49 1123 -295
1535 -727 386 -405 613 -925 648 -1487 6 -102 9 -118 24 -118 15 0 18 15 24
107 34 524 215 985 543 1380 410 494 986 791 1646 845 117 10 137 14 137 28 0
15 -16 18 -107 24 -571 36 -1088 264 -1499 659 -430 413 -681 958 -720 1560
-6 92 -9 107 -24 107 -15 0 -18 -15 -24 -107z"/>
</g>
</svg>
